<svg xmlns="http://www.w3.org/2000/svg" viewBox="0 0 520 340" role="img">
  <defs>
    <linearGradient id="bg" x1="0" y1="0" x2="1" y2="1">
      <stop offset="0" stop-color="#EAF8F4"/>
      <stop offset="1" stop-color="#DDF7E9"/>
    </linearGradient>
    <filter id="shadow" x="-20%" y="-20%" width="140%" height="140%">
      <feDropShadow dx="0" dy="14" stdDeviation="18" flood-color="#6FAF96" flood-opacity="0.16"/>
    </filter>
  </defs>
  <rect width="520" height="340" rx="34" fill="url(#bg)"/>
  <circle cx="420" cy="72" r="88" fill="#FFFFFF" opacity="0.22"/>
  <circle cx="86" cy="292" r="78" fill="#FFFFFF" opacity="0.18"/>
  <g filter="url(#shadow)">
    <path d="M222 130c-38 28-48 116-4 152 26 22 58 8 58-26V150c0-24-30-34-54-20ZM298 130c38 28 48 116 4 152-26 22-58 8-58-26V150c0-24 30-34 54-20Z" fill="#FFFFFF" opacity=".84"/>
<path d="M260 170v84" stroke="#5BBF8A" stroke-width="12" stroke-linecap="round"/>

  </g>
  <circle cx="392" cy="254" r="16" fill="#FFFFFF" opacity="0.62"/>
  <circle cx="126" cy="92" r="10" fill="#FFFFFF" opacity="0.55"/>
</svg>
