<svg width="192" height="192" viewBox="0 0 192 192" fill="none" xmlns="http://www.w3.org/2000/svg">
  <rect width="192" height="192" rx="96" fill="url(#avatarBg)"/>
  <circle cx="96" cy="96" r="78" fill="url(#innerGlow)" opacity=".88"/>
  <path d="M48 131.5c8.9-24.3 26.7-37.4 48-37.4s39.1 13.1 48 37.4c-11.2 16.2-28.8 26.4-48 26.4s-36.8-10.2-48-26.4Z" fill="#F7FCF9"/>
  <circle cx="96" cy="75" r="29" fill="#F7FCF9"/>
  <path d="M71.8 75.4c5.7 6.4 14.1 10.4 23.4 10.4 10.2 0 19.3-4.8 25.1-12.3" stroke="#9FDEB8" stroke-width="7" stroke-linecap="round" opacity=".95"/>
  <path d="M133 54c13.2 10.3 20.8 25.5 20.8 42.2 0 16.5-7.5 31.4-20.2 41.7" stroke="#7FC8E8" stroke-width="8" stroke-linecap="round" opacity=".56"/>
  <path d="M59 54c-13.2 10.3-20.8 25.5-20.8 42.2 0 16.5 7.5 31.4 20.2 41.7" stroke="#6FCF97" stroke-width="8" stroke-linecap="round" opacity=".58"/>
  <path d="M130.5 47.5c12.3-2.4 22.9 2.8 30.3 14.9-12.8 4.4-23.3 1.6-30.3-14.9Z" fill="#FFFFFF" opacity=".78"/>
  <path d="M134.1 61.2c6.2-3.1 12.2-3.8 18-2" stroke="#5BBF8A" stroke-width="4" stroke-linecap="round" opacity=".8"/>
  <circle cx="62" cy="42" r="7" fill="#FFFFFF" opacity=".64"/>
  <circle cx="151" cy="123" r="5" fill="#FFFFFF" opacity=".55"/>
  <defs>
    <linearGradient id="avatarBg" x1="24" y1="18" x2="169" y2="172" gradientUnits="userSpaceOnUse">
      <stop stop-color="#AEE8C7"/>
      <stop offset=".46" stop-color="#DDF7E9"/>
      <stop offset="1" stop-color="#BEEAF2"/>
    </linearGradient>
    <radialGradient id="innerGlow" cx="0" cy="0" r="1" gradientUnits="userSpaceOnUse" gradientTransform="translate(80 62) rotate(56.3) scale(118 103)">
      <stop stop-color="#FFFFFF"/>
      <stop offset=".72" stop-color="#FFFFFF" stop-opacity=".64"/>
      <stop offset="1" stop-color="#FFFFFF" stop-opacity=".2"/>
    </radialGradient>
  </defs>
</svg>
